<svg id="visual" viewBox="0 0 1500 900" width="1500" height="900" xmlns="http://www.w3.org/2000/svg" xmlns:xlink="http://www.w3.org/1999/xlink" version="1.1"><g stroke-width="1" stroke-linejoin="bevel"><path d="M750 440L661 541.5L721 544.5Z" fill="#00101c" stroke="#00101c"></path><path d="M750 440L606 459L661 541.5Z" fill="#0c2435" stroke="#0c2435"></path><path d="M750 440L712 308.5L606 459Z" fill="#081a28" stroke="#081a28"></path><path d="M480 554.5L642 651L661 541.5Z" fill="#277297" stroke="#277297"></path><path d="M661 541.5L642 651L721 544.5Z" fill="#15384f" stroke="#15384f"></path><path d="M905 530.5L874 426L750 440Z" fill="#00101c" stroke="#00101c"></path><path d="M750 440L889 355.5L712 308.5Z" fill="#15384f" stroke="#15384f"></path><path d="M905 530.5L750 440L721 544.5Z" fill="#246688" stroke="#246688"></path><path d="M712 308.5L598 311.5L606 459Z" fill="#297ea6" stroke="#297ea6"></path><path d="M493 315.5L483 482L606 459Z" fill="#0c2435" stroke="#0c2435"></path><path d="M606 459L480 554.5L661 541.5Z" fill="#081a28" stroke="#081a28"></path><path d="M835 648L905 530.5L721 544.5Z" fill="#081a28" stroke="#081a28"></path><path d="M776 705L835 648L721 544.5Z" fill="#15384f" stroke="#15384f"></path><path d="M483 482L480 554.5L606 459Z" fill="#081a28" stroke="#081a28"></path><path d="M978 435L889 355.5L874 426Z" fill="#0c2435" stroke="#0c2435"></path><path d="M874 426L889 355.5L750 440Z" fill="#112e42" stroke="#112e42"></path><path d="M642 651L776 705L721 544.5Z" fill="#205a7a" stroke="#205a7a"></path><path d="M480 554.5L534 680L642 651Z" fill="#19435d" stroke="#19435d"></path><path d="M642 651L615 769.5L776 705Z" fill="#277297" stroke="#277297"></path><path d="M598 311.5L493 315.5L606 459Z" fill="#15384f" stroke="#15384f"></path><path d="M889 355.5L786 228L712 308.5Z" fill="#19435d" stroke="#19435d"></path><path d="M712 308.5L655 209L598 311.5Z" fill="#1d4e6b" stroke="#1d4e6b"></path><path d="M598 311.5L521 241L493 315.5Z" fill="#081a28" stroke="#081a28"></path><path d="M786 228L655 209L712 308.5Z" fill="#1d4e6b" stroke="#1d4e6b"></path><path d="M1008 581.5L978 435L905 530.5Z" fill="#297ea6" stroke="#297ea6"></path><path d="M905 530.5L978 435L874 426Z" fill="#1d4e6b" stroke="#1d4e6b"></path><path d="M889 355.5L857 221L786 228Z" fill="#277297" stroke="#277297"></path><path d="M655 209L521 241L598 311.5Z" fill="#277297" stroke="#277297"></path><path d="M534 680L615 769.5L642 651Z" fill="#00101c" stroke="#00101c"></path><path d="M1004 210L857 221L889 355.5Z" fill="#277297" stroke="#277297"></path><path d="M786 228L747 144.5L655 209Z" fill="#19435d" stroke="#19435d"></path><path d="M615 769.5L773 784.5L776 705Z" fill="#205a7a" stroke="#205a7a"></path><path d="M776 705L877 782.5L835 648Z" fill="#205a7a" stroke="#205a7a"></path><path d="M1010 635L1008 581.5L905 530.5Z" fill="#1d4e6b" stroke="#1d4e6b"></path><path d="M483 482L382 538.5L480 554.5Z" fill="#1d4e6b" stroke="#1d4e6b"></path><path d="M480 554.5L358 673L534 680Z" fill="#112e42" stroke="#112e42"></path><path d="M534 680L502 817.5L615 769.5Z" fill="#205a7a" stroke="#205a7a"></path><path d="M337 467L382 538.5L483 482Z" fill="#00101c" stroke="#00101c"></path><path d="M337 467L483 482L493 315.5Z" fill="#112e42" stroke="#112e42"></path><path d="M1010 635L905 530.5L835 648Z" fill="#246688" stroke="#246688"></path><path d="M1142 366.5L1001 342.5L978 435Z" fill="#00101c" stroke="#00101c"></path><path d="M978 435L1001 342.5L889 355.5Z" fill="#112e42" stroke="#112e42"></path><path d="M857 221L747 144.5L786 228Z" fill="#15384f" stroke="#15384f"></path><path d="M655 209L614 82.5L521 241Z" fill="#15384f" stroke="#15384f"></path><path d="M877 782.5L1010 635L835 648Z" fill="#277297" stroke="#277297"></path><path d="M1094 236L1004 210L1001 342.5Z" fill="#277297" stroke="#277297"></path><path d="M773 784.5L877 782.5L776 705Z" fill="#277297" stroke="#277297"></path><path d="M352 307.5L337 467L493 315.5Z" fill="#081a28" stroke="#081a28"></path><path d="M358 208L352 307.5L493 315.5Z" fill="#277297" stroke="#277297"></path><path d="M358 208L493 315.5L521 241Z" fill="#297ea6" stroke="#297ea6"></path><path d="M264 568.5L358 673L382 538.5Z" fill="#277297" stroke="#277297"></path><path d="M382 538.5L358 673L480 554.5Z" fill="#0c2435" stroke="#0c2435"></path><path d="M378 811.5L502 817.5L534 680Z" fill="#00101c" stroke="#00101c"></path><path d="M615 769.5L753 900L773 784.5Z" fill="#0c2435" stroke="#0c2435"></path><path d="M773 784.5L850 900L877 782.5Z" fill="#00101c" stroke="#00101c"></path><path d="M857 221L886 137.5L747 144.5Z" fill="#081a28" stroke="#081a28"></path><path d="M1004 210L886 137.5L857 221Z" fill="#1d4e6b" stroke="#1d4e6b"></path><path d="M652 0L614 82.5L747 144.5Z" fill="#00101c" stroke="#00101c"></path><path d="M747 144.5L614 82.5L655 209Z" fill="#246688" stroke="#246688"></path><path d="M1152 474L978 435L1008 581.5Z" fill="#0c2435" stroke="#0c2435"></path><path d="M1001 342.5L1004 210L889 355.5Z" fill="#00101c" stroke="#00101c"></path><path d="M619 900L753 900L615 769.5Z" fill="#1d4e6b" stroke="#1d4e6b"></path><path d="M502 817.5L619 900L615 769.5Z" fill="#081a28" stroke="#081a28"></path><path d="M389 141.5L358 208L521 241Z" fill="#297ea6" stroke="#297ea6"></path><path d="M222 421L264 568.5L337 467Z" fill="#297ea6" stroke="#297ea6"></path><path d="M614 82.5L539 73.5L521 241Z" fill="#277297" stroke="#277297"></path><path d="M222 421L337 467L352 307.5Z" fill="#15384f" stroke="#15384f"></path><path d="M337 467L264 568.5L382 538.5Z" fill="#112e42" stroke="#112e42"></path><path d="M877 782.5L1010 791.5L1010 635Z" fill="#277297" stroke="#277297"></path><path d="M1000 900L1010 791.5L877 782.5Z" fill="#0c2435" stroke="#0c2435"></path><path d="M753 900L850 900L773 784.5Z" fill="#246688" stroke="#246688"></path><path d="M539 73.5L389 141.5L521 241Z" fill="#0c2435" stroke="#0c2435"></path><path d="M1157 680L1143 567.5L1010 635Z" fill="#246688" stroke="#246688"></path><path d="M1010 635L1143 567.5L1008 581.5Z" fill="#19435d" stroke="#19435d"></path><path d="M358 673L378 811.5L534 680Z" fill="#19435d" stroke="#19435d"></path><path d="M502 817.5L472 900L619 900Z" fill="#246688" stroke="#246688"></path><path d="M272 777.5L378 811.5L358 673Z" fill="#00101c" stroke="#00101c"></path><path d="M1143 567.5L1152 474L1008 581.5Z" fill="#1d4e6b" stroke="#1d4e6b"></path><path d="M1152 474L1142 366.5L978 435Z" fill="#205a7a" stroke="#205a7a"></path><path d="M1142 366.5L1094 236L1001 342.5Z" fill="#277297" stroke="#277297"></path><path d="M1004 210L1038 136.5L886 137.5Z" fill="#112e42" stroke="#112e42"></path><path d="M264 568.5L253 644L358 673Z" fill="#246688" stroke="#246688"></path><path d="M378 811.5L472 900L502 817.5Z" fill="#0c2435" stroke="#0c2435"></path><path d="M220 345.5L352 307.5L218 243Z" fill="#246688" stroke="#246688"></path><path d="M220 345.5L222 421L352 307.5Z" fill="#205a7a" stroke="#205a7a"></path><path d="M264 568.5L154 662L253 644Z" fill="#277297" stroke="#277297"></path><path d="M767 0L652 0L747 144.5Z" fill="#19435d" stroke="#19435d"></path><path d="M614 82.5L652 0L539 73.5Z" fill="#081a28" stroke="#081a28"></path><path d="M539 73.5L462 0L389 141.5Z" fill="#0c2435" stroke="#0c2435"></path><path d="M767 0L747 144.5L848 0Z" fill="#205a7a" stroke="#205a7a"></path><path d="M848 0L747 144.5L886 137.5Z" fill="#246688" stroke="#246688"></path><path d="M1094 236L1038 136.5L1004 210Z" fill="#297ea6" stroke="#297ea6"></path><path d="M218 243L352 307.5L358 208Z" fill="#081a28" stroke="#081a28"></path><path d="M1118 769.5L1157 680L1010 635Z" fill="#297ea6" stroke="#297ea6"></path><path d="M1143 567.5L1238 592.5L1152 474Z" fill="#0c2435" stroke="#0c2435"></path><path d="M984 0L848 0L886 137.5Z" fill="#19435d" stroke="#19435d"></path><path d="M1111 900L1118 769.5L1010 791.5Z" fill="#205a7a" stroke="#205a7a"></path><path d="M1010 791.5L1118 769.5L1010 635Z" fill="#297ea6" stroke="#297ea6"></path><path d="M253 644L272 777.5L358 673Z" fill="#15384f" stroke="#15384f"></path><path d="M378 811.5L388 900L472 900Z" fill="#1d4e6b" stroke="#1d4e6b"></path><path d="M850 900L1000 900L877 782.5Z" fill="#205a7a" stroke="#205a7a"></path><path d="M243 900L388 900L378 811.5Z" fill="#19435d" stroke="#19435d"></path><path d="M272 127.5L218 243L358 208Z" fill="#15384f" stroke="#15384f"></path><path d="M652 0L462 0L539 73.5Z" fill="#15384f" stroke="#15384f"></path><path d="M389 141.5L272 127.5L358 208Z" fill="#246688" stroke="#246688"></path><path d="M366 0L272 127.5L389 141.5Z" fill="#081a28" stroke="#081a28"></path><path d="M1157 680L1238 592.5L1143 567.5Z" fill="#246688" stroke="#246688"></path><path d="M1273 459L1230 323.5L1142 366.5Z" fill="#15384f" stroke="#15384f"></path><path d="M1142 366.5L1230 323.5L1094 236Z" fill="#081a28" stroke="#081a28"></path><path d="M1276 660L1238 592.5L1157 680Z" fill="#081a28" stroke="#081a28"></path><path d="M1094 236L1105 99.5L1038 136.5Z" fill="#19435d" stroke="#19435d"></path><path d="M1273 459L1142 366.5L1152 474Z" fill="#19435d" stroke="#19435d"></path><path d="M1233 123.5L1105 99.5L1094 236Z" fill="#1d4e6b" stroke="#1d4e6b"></path><path d="M1038 136.5L984 0L886 137.5Z" fill="#277297" stroke="#277297"></path><path d="M1091 0L984 0L1038 136.5Z" fill="#112e42" stroke="#112e42"></path><path d="M121 571.5L154 662L264 568.5Z" fill="#0c2435" stroke="#0c2435"></path><path d="M253 644L154 662L272 777.5Z" fill="#246688" stroke="#246688"></path><path d="M272 777.5L243 900L378 811.5Z" fill="#246688" stroke="#246688"></path><path d="M121 571.5L264 568.5L113 460Z" fill="#1d4e6b" stroke="#1d4e6b"></path><path d="M140 328.5L222 421L220 345.5Z" fill="#00101c" stroke="#00101c"></path><path d="M149 255L220 345.5L218 243Z" fill="#0c2435" stroke="#0c2435"></path><path d="M149 255L140 328.5L220 345.5Z" fill="#0c2435" stroke="#0c2435"></path><path d="M1238 592.5L1273 459L1152 474Z" fill="#19435d" stroke="#19435d"></path><path d="M113 460L264 568.5L222 421Z" fill="#081a28" stroke="#081a28"></path><path d="M140 328.5L113 460L222 421Z" fill="#205a7a" stroke="#205a7a"></path><path d="M462 0L366 0L389 141.5Z" fill="#112e42" stroke="#112e42"></path><path d="M149 138.5L149 255L218 243Z" fill="#1d4e6b" stroke="#1d4e6b"></path><path d="M0 373.5L0 464L113 460Z" fill="#1d4e6b" stroke="#1d4e6b"></path><path d="M149 138.5L218 243L272 127.5Z" fill="#081a28" stroke="#081a28"></path><path d="M1000 900L1111 900L1010 791.5Z" fill="#0c2435" stroke="#0c2435"></path><path d="M1235 806.5L1276 660L1157 680Z" fill="#1d4e6b" stroke="#1d4e6b"></path><path d="M1235 806.5L1157 680L1118 769.5Z" fill="#0c2435" stroke="#0c2435"></path><path d="M1238 592.5L1355 461L1273 459Z" fill="#246688" stroke="#246688"></path><path d="M145 800.5L243 900L272 777.5Z" fill="#081a28" stroke="#081a28"></path><path d="M1105 99.5L1091 0L1038 136.5Z" fill="#19435d" stroke="#19435d"></path><path d="M1219 0L1091 0L1105 99.5Z" fill="#277297" stroke="#277297"></path><path d="M1111 900L1235 806.5L1118 769.5Z" fill="#277297" stroke="#277297"></path><path d="M1391 334.5L1265 207L1230 323.5Z" fill="#277297" stroke="#277297"></path><path d="M1230 323.5L1265 207L1094 236Z" fill="#00101c" stroke="#00101c"></path><path d="M154 662L145 800.5L272 777.5Z" fill="#15384f" stroke="#15384f"></path><path d="M0 675L145 800.5L154 662Z" fill="#205a7a" stroke="#205a7a"></path><path d="M242 0L149 138.5L272 127.5Z" fill="#081a28" stroke="#081a28"></path><path d="M0 373.5L113 460L140 328.5Z" fill="#1d4e6b" stroke="#1d4e6b"></path><path d="M1265 207L1233 123.5L1094 236Z" fill="#19435d" stroke="#19435d"></path><path d="M366 0L242 0L272 127.5Z" fill="#297ea6" stroke="#297ea6"></path><path d="M1413 573.5L1355 461L1238 592.5Z" fill="#15384f" stroke="#15384f"></path><path d="M1273 459L1391 334.5L1230 323.5Z" fill="#205a7a" stroke="#205a7a"></path><path d="M1413 573.5L1238 592.5L1276 660Z" fill="#19435d" stroke="#19435d"></path><path d="M0 373.5L140 328.5L0 204Z" fill="#112e42" stroke="#112e42"></path><path d="M113 460L0 567.5L121 571.5Z" fill="#297ea6" stroke="#297ea6"></path><path d="M121 571.5L0 675L154 662Z" fill="#19435d" stroke="#19435d"></path><path d="M0 900L137 900L145 800.5Z" fill="#297ea6" stroke="#297ea6"></path><path d="M145 800.5L137 900L243 900Z" fill="#297ea6" stroke="#297ea6"></path><path d="M0 464L0 567.5L113 460Z" fill="#205a7a" stroke="#205a7a"></path><path d="M0 204L140 328.5L149 255Z" fill="#297ea6" stroke="#297ea6"></path><path d="M1111 900L1258 900L1235 806.5Z" fill="#081a28" stroke="#081a28"></path><path d="M1235 806.5L1371 708L1276 660Z" fill="#205a7a" stroke="#205a7a"></path><path d="M1393 102.5L1233 123.5L1265 207Z" fill="#081a28" stroke="#081a28"></path><path d="M1377 0L1219 0L1233 123.5Z" fill="#205a7a" stroke="#205a7a"></path><path d="M1233 123.5L1219 0L1105 99.5Z" fill="#112e42" stroke="#112e42"></path><path d="M1500 417L1391 334.5L1355 461Z" fill="#277297" stroke="#277297"></path><path d="M1355 461L1391 334.5L1273 459Z" fill="#19435d" stroke="#19435d"></path><path d="M1414 772.5L1371 708L1235 806.5Z" fill="#1d4e6b" stroke="#1d4e6b"></path><path d="M0 567.5L0 675L121 571.5Z" fill="#081a28" stroke="#081a28"></path><path d="M1371 708L1413 573.5L1276 660Z" fill="#19435d" stroke="#19435d"></path><path d="M149 138.5L0 204L149 255Z" fill="#112e42" stroke="#112e42"></path><path d="M0 98.5L0 204L149 138.5Z" fill="#277297" stroke="#277297"></path><path d="M0 675L0 784.5L145 800.5Z" fill="#15384f" stroke="#15384f"></path><path d="M1391 334.5L1397 192L1265 207Z" fill="#112e42" stroke="#112e42"></path><path d="M1500 254L1397 192L1391 334.5Z" fill="#1d4e6b" stroke="#1d4e6b"></path><path d="M242 0L104 0L149 138.5Z" fill="#081a28" stroke="#081a28"></path><path d="M1357 900L1414 772.5L1235 806.5Z" fill="#15384f" stroke="#15384f"></path><path d="M1500 713L1500 550.5L1413 573.5Z" fill="#19435d" stroke="#19435d"></path><path d="M1258 900L1357 900L1235 806.5Z" fill="#277297" stroke="#277297"></path><path d="M104 0L0 98.5L149 138.5Z" fill="#15384f" stroke="#15384f"></path><path d="M1397 192L1393 102.5L1265 207Z" fill="#15384f" stroke="#15384f"></path><path d="M1500 550.5L1355 461L1413 573.5Z" fill="#00101c" stroke="#00101c"></path><path d="M1500 550.5L1500 417L1355 461Z" fill="#297ea6" stroke="#297ea6"></path><path d="M1397 192L1500 140.5L1393 102.5Z" fill="#277297" stroke="#277297"></path><path d="M1500 713L1413 573.5L1371 708Z" fill="#277297" stroke="#277297"></path><path d="M0 784.5L0 900L145 800.5Z" fill="#112e42" stroke="#112e42"></path><path d="M1500 417L1500 302.5L1391 334.5Z" fill="#00101c" stroke="#00101c"></path><path d="M1500 0L1377 0L1393 102.5Z" fill="#205a7a" stroke="#205a7a"></path><path d="M1393 102.5L1377 0L1233 123.5Z" fill="#277297" stroke="#277297"></path><path d="M1500 302.5L1500 254L1391 334.5Z" fill="#19435d" stroke="#19435d"></path><path d="M1500 821.5L1500 713L1414 772.5Z" fill="#297ea6" stroke="#297ea6"></path><path d="M1414 772.5L1500 713L1371 708Z" fill="#112e42" stroke="#112e42"></path><path d="M104 0L0 0L0 98.5Z" fill="#00101c" stroke="#00101c"></path><path d="M1500 254L1500 140.5L1397 192Z" fill="#00101c" stroke="#00101c"></path><path d="M1357 900L1500 821.5L1414 772.5Z" fill="#277297" stroke="#277297"></path><path d="M1357 900L1500 900L1500 821.5Z" fill="#081a28" stroke="#081a28"></path><path d="M1500 140.5L1500 0L1393 102.5Z" fill="#081a28" stroke="#081a28"></path></g></svg>